<svg width="24" height="24" viewBox="0 0 24 24" fill="none" xmlns="http://www.w3.org/2000/svg">
<path d="M0.00736874 12.0153C-0.227614 5.82848 5.19151 0.111084 11.3846 0.036906C14.541 -0.232313 17.6119 0.993437 20.0006 2.99261C19.0207 4.07 18.0238 5.13494 16.9588 6.13193C14.8559 4.85431 12.324 3.88066 9.86627 4.74538C5.90217 5.87413 3.50151 10.5546 4.96846 14.4326C6.18332 18.4828 11.1097 20.7055 14.9705 19.0041C16.9697 18.2883 18.2878 16.4437 18.8662 14.4616C16.575 14.416 14.2832 14.4445 11.992 14.3812C11.9863 13.018 11.9806 11.66 11.9863 10.2968C15.8072 10.2911 19.6339 10.2797 23.4605 10.3139C23.6955 13.654 23.2027 17.2285 21.0313 19.9093C18.058 23.7359 12.5647 24.859 8.09586 23.3578C3.35315 21.8 -0.0958577 17.0221 0.00736874 12.0153Z" fill="white"/>
</svg>
